<svg xmlns="http://www.w3.org/2000/svg" viewBox="0 0 1120 560" width="1120" height="560" role="img" aria-label="dsh-conversation-navigator 流量趋势">
<style>
  .bg{fill:#ffffff}.panel{fill:#f8fafc;stroke:#e2e8f0}
  .grid{stroke:#e5e7eb;stroke-width:1}.tick{fill:#64748b;font:11px ui-sans-serif,system-ui,sans-serif}
  .title{fill:#0f172a;font:600 17px ui-sans-serif,system-ui,sans-serif}
  .sub{fill:#475569;font:12px ui-sans-serif,system-ui,sans-serif}
  .lbl{fill:#334155;font:600 12px ui-sans-serif,system-ui,sans-serif}
  .rellabel{fill:#b45309;font:10px ui-sans-serif,system-ui,sans-serif}
  .rel{stroke:#f59e0b;stroke-width:1;stroke-dasharray:3 4;opacity:.65}
  .kpi{fill:#0f172a;font:600 15px ui-sans-serif,system-ui,sans-serif}
  .kpisub{fill:#64748b;font:10px ui-sans-serif,system-ui,sans-serif}
  @media (prefers-color-scheme: dark){
    .bg{fill:#0b1220}.panel{fill:#111a2e;stroke:#1f2a44}.grid{stroke:#1f2a44}.tick{fill:#94a3b8}
    .title{fill:#e2e8f0}.sub{fill:#94a3b8}.lbl{fill:#cbd5e1}.kpi{fill:#e2e8f0}.kpisub{fill:#94a3b8}
    .rellabel{fill:#fbbf24}
  }
</style>
<rect class="bg" width="1120" height="560"/>
<text class="title" x="68" y="34">dsh-conversation-navigator · 流量趋势</text>
<text class="sub" x="68" y="54">2026-08-17 → 2026-09-14　累计 29 天　数据源：npm downloads + GitHub traffic（8/17–8/29 GitHub 数据由会话日志快照恢复）</text>
<text class="sub" x="68" y="72">最近发版 0.2.8 @ 2026-09-07（7 天前）　生成于 2026-09-14 03:32Z</text>

<g class="kpi">
  <text x="68" y="92">5,795</text><text class="kpisub" x="68" y="104" dy="0">npm 累计下载</text>
</g>
<g class="kpi" transform="translate(190,0)"><text x="0" y="92">458</text><text class="kpisub" x="0" y="104">GitHub 独立访客</text></g>
<g class="kpi" transform="translate(380,0)"><text x="0" y="92">276</text><text class="kpisub" x="0" y="104">独立克隆者</text></g>
<g class="kpi" transform="translate(560,0)"><text x="0" y="92">22</text><text class="kpisub" x="0" y="104">Stars</text></g>
<g class="kpi" transform="translate(700,0)"><text x="0" y="92">1,097 / 423</text><text class="kpisub" x="0" y="104">views / clones 次数</text></g>

<line class="rel" x1="68.0" y1="90" x2="68.0" y2="486"/><text class="rellabel" x="68.0" y="84" text-anchor="middle">0.1.0…0.1.15</text><circle cx="68.0" cy="78" r="2.4" fill="#f59e0b"/><line class="rel" x1="104.7" y1="90" x2="104.7" y2="486"/><text class="rellabel" x="104.7" y="84" text-anchor="middle">0.1.16</text><circle cx="104.7" cy="78" r="2.4" fill="#f59e0b"/><line class="rel" x1="141.4" y1="90" x2="141.4" y2="486"/><text class="rellabel" x="141.4" y="84" text-anchor="middle">0.1.17+0.1.18</text><circle cx="141.4" cy="78" r="2.4" fill="#f59e0b"/><line class="rel" x1="214.9" y1="90" x2="214.9" y2="486"/><text class="rellabel" x="214.9" y="84" text-anchor="middle">0.1.19+0.1.20</text><circle cx="214.9" cy="78" r="2.4" fill="#f59e0b"/><line class="rel" x1="325.0" y1="90" x2="325.0" y2="486"/><text class="rellabel" x="325.0" y="84" text-anchor="middle">0.1.21+0.1.22</text><circle cx="325.0" cy="78" r="2.4" fill="#f59e0b"/><line class="rel" x1="361.7" y1="90" x2="361.7" y2="486"/><text class="rellabel" x="361.7" y="84" text-anchor="middle">0.1.23+0.1.24</text><circle cx="361.7" cy="78" r="2.4" fill="#f59e0b"/><line class="rel" x1="398.4" y1="90" x2="398.4" y2="486"/><text class="rellabel" x="398.4" y="84" text-anchor="middle">0.1.25</text><circle cx="398.4" cy="78" r="2.4" fill="#f59e0b"/><line class="rel" x1="435.1" y1="90" x2="435.1" y2="486"/><text class="rellabel" x="435.1" y="84" text-anchor="middle">0.2.0</text><circle cx="435.1" cy="78" r="2.4" fill="#f59e0b"/><line class="rel" x1="471.9" y1="90" x2="471.9" y2="486"/><text class="rellabel" x="471.9" y="84" text-anchor="middle">0.2.1</text><circle cx="471.9" cy="78" r="2.4" fill="#f59e0b"/><line class="rel" x1="582.0" y1="90" x2="582.0" y2="486"/><text class="rellabel" x="582.0" y="84" text-anchor="middle">0.2.2</text><circle cx="582.0" cy="78" r="2.4" fill="#f59e0b"/><line class="rel" x1="692.1" y1="90" x2="692.1" y2="486"/><text class="rellabel" x="692.1" y="84" text-anchor="middle">0.2.3…0.2.5</text><circle cx="692.1" cy="78" r="2.4" fill="#f59e0b"/><line class="rel" x1="765.6" y1="90" x2="765.6" y2="486"/><text class="rellabel" x="765.6" y="84" text-anchor="middle">0.2.6</text><circle cx="765.6" cy="78" r="2.4" fill="#f59e0b"/><line class="rel" x1="839.0" y1="90" x2="839.0" y2="486"/><text class="rellabel" x="839.0" y="84" text-anchor="middle">0.2.7+0.2.8</text><circle cx="839.0" cy="78" r="2.4" fill="#f59e0b"/>
<text class="lbl" x="68" y="70">GitHub 独立访客 / 独立克隆者（上限 50）</text>
<rect class="panel" x="68" y="104" width="1028" height="244" rx="6"/>
<line class="grid" x1="68" y1="348.0" x2="1096" y2="348.0"/><text class="tick" x="60" y="351.5" text-anchor="end">0</text><line class="grid" x1="68" y1="287.0" x2="1096" y2="287.0"/><text class="tick" x="60" y="290.5" text-anchor="end">13</text><line class="grid" x1="68" y1="226.0" x2="1096" y2="226.0"/><text class="tick" x="60" y="229.5" text-anchor="end">25</text><line class="grid" x1="68" y1="165.0" x2="1096" y2="165.0"/><text class="tick" x="60" y="168.5" text-anchor="end">38</text><line class="grid" x1="68" y1="104.0" x2="1096" y2="104.0"/><text class="tick" x="60" y="107.5" text-anchor="end">50</text>
<path d="M68.0,323.6 L104.7,323.6 L141.4,343.1 L178.1,343.1 L214.9,304.1 L251.6,338.2 L288.3,323.6 L325.0,304.1 L361.7,323.6 L398.4,191.8 L435.1,162.6 L471.9,133.3 L508.6,206.5 L545.3,294.3 L582.0,216.2 L618.7,216.2 L655.4,226.0 L692.1,211.4 L728.9,211.4 L765.6,235.8 L802.3,279.7 L839.0,240.6 L875.7,274.8 L912.4,294.3 L949.1,279.7 L985.9,260.2 L1022.6,299.2 L1022.6,348 L68.0,348 Z" fill="#2563eb" opacity=".10"/>
<path d="M68.0,323.6 L104.7,323.6 L141.4,343.1 L178.1,343.1 L214.9,304.1 L251.6,338.2 L288.3,323.6 L325.0,304.1 L361.7,323.6 L398.4,191.8 L435.1,162.6 L471.9,133.3 L508.6,206.5 L545.3,294.3 L582.0,216.2 L618.7,216.2 L655.4,226.0 L692.1,211.4 L728.9,211.4 L765.6,235.8 L802.3,279.7 L839.0,240.6 L875.7,274.8 L912.4,294.3 L949.1,279.7 L985.9,260.2 L1022.6,299.2" fill="none" stroke="#2563eb" stroke-width="2.2" stroke-linejoin="round"/>
<path d="M68.0,187.0 L104.7,328.5 L141.4,299.2 L178.1,299.2 L214.9,313.8 L251.6,328.5 L288.3,318.7 L325.0,318.7 L361.7,279.7 L398.4,279.7 L435.1,265.0 L471.9,289.4 L508.6,338.2 L545.3,323.6 L582.0,274.8 L618.7,304.1 L655.4,323.6 L692.1,265.0 L728.9,338.2 L765.6,260.2 L802.3,333.4 L839.0,226.0 L875.7,240.6 L912.4,333.4 L949.1,323.6 L985.9,318.7 L1022.6,338.2" fill="none" stroke="#10b981" stroke-width="2.2" stroke-linejoin="round" stroke-dasharray="6 3"/>
<circle cx="68.0" cy="323.6" r="2.6" fill="#2563eb"><title>2026-08-17 · 5</title></circle><circle cx="104.7" cy="323.6" r="2.6" fill="#2563eb"><title>2026-08-18 · 5</title></circle><circle cx="141.4" cy="343.1" r="2.6" fill="#2563eb"><title>2026-08-19 · 1</title></circle><circle cx="178.1" cy="343.1" r="2.6" fill="#2563eb"><title>2026-08-20 · 1</title></circle><circle cx="214.9" cy="304.1" r="2.6" fill="#2563eb"><title>2026-08-21 · 9</title></circle><circle cx="251.6" cy="338.2" r="2.6" fill="#2563eb"><title>2026-08-22 · 2</title></circle><circle cx="288.3" cy="323.6" r="2.6" fill="#2563eb"><title>2026-08-23 · 5</title></circle><circle cx="325.0" cy="304.1" r="2.6" fill="#2563eb"><title>2026-08-24 · 9</title></circle><circle cx="361.7" cy="323.6" r="2.6" fill="#2563eb"><title>2026-08-25 · 5</title></circle><circle cx="398.4" cy="191.8" r="2.6" fill="#2563eb"><title>2026-08-26 · 32</title></circle><circle cx="435.1" cy="162.6" r="2.6" fill="#2563eb"><title>2026-08-27 · 38</title></circle><circle cx="471.9" cy="133.3" r="2.6" fill="#2563eb"><title>2026-08-28 · 44</title></circle><circle cx="508.6" cy="206.5" r="2.6" fill="#2563eb"><title>2026-08-29 · 29</title></circle><circle cx="545.3" cy="294.3" r="2.6" fill="#2563eb"><title>2026-08-30 · 11</title></circle><circle cx="582.0" cy="216.2" r="2.6" fill="#2563eb"><title>2026-08-31 · 27</title></circle><circle cx="618.7" cy="216.2" r="2.6" fill="#2563eb"><title>2026-09-01 · 27</title></circle><circle cx="655.4" cy="226.0" r="2.6" fill="#2563eb"><title>2026-09-02 · 25</title></circle><circle cx="692.1" cy="211.4" r="2.6" fill="#2563eb"><title>2026-09-03 · 28</title></circle><circle cx="728.9" cy="211.4" r="2.6" fill="#2563eb"><title>2026-09-04 · 28</title></circle><circle cx="765.6" cy="235.8" r="2.6" fill="#2563eb"><title>2026-09-05 · 23</title></circle><circle cx="802.3" cy="279.7" r="2.6" fill="#2563eb"><title>2026-09-06 · 14</title></circle><circle cx="839.0" cy="240.6" r="2.6" fill="#2563eb"><title>2026-09-07 · 22</title></circle><circle cx="875.7" cy="274.8" r="2.6" fill="#2563eb"><title>2026-09-08 · 15</title></circle><circle cx="912.4" cy="294.3" r="2.6" fill="#2563eb"><title>2026-09-09 · 11</title></circle><circle cx="949.1" cy="279.7" r="2.6" fill="#2563eb"><title>2026-09-10 · 14</title></circle><circle cx="985.9" cy="260.2" r="2.6" fill="#2563eb"><title>2026-09-11 · 18</title></circle><circle cx="1022.6" cy="299.2" r="2.6" fill="#2563eb"><title>2026-09-12 · 10</title></circle>
<circle cx="68.0" cy="187.0" r="2.6" fill="#10b981"><title>2026-08-17 · 33</title></circle><circle cx="104.7" cy="328.5" r="2.6" fill="#10b981"><title>2026-08-18 · 4</title></circle><circle cx="141.4" cy="299.2" r="2.6" fill="#10b981"><title>2026-08-19 · 10</title></circle><circle cx="178.1" cy="299.2" r="2.6" fill="#10b981"><title>2026-08-20 · 10</title></circle><circle cx="214.9" cy="313.8" r="2.6" fill="#10b981"><title>2026-08-21 · 7</title></circle><circle cx="251.6" cy="328.5" r="2.6" fill="#10b981"><title>2026-08-22 · 4</title></circle><circle cx="288.3" cy="318.7" r="2.6" fill="#10b981"><title>2026-08-23 · 6</title></circle><circle cx="325.0" cy="318.7" r="2.6" fill="#10b981"><title>2026-08-24 · 6</title></circle><circle cx="361.7" cy="279.7" r="2.6" fill="#10b981"><title>2026-08-25 · 14</title></circle><circle cx="398.4" cy="279.7" r="2.6" fill="#10b981"><title>2026-08-26 · 14</title></circle><circle cx="435.1" cy="265.0" r="2.6" fill="#10b981"><title>2026-08-27 · 17</title></circle><circle cx="471.9" cy="289.4" r="2.6" fill="#10b981"><title>2026-08-28 · 12</title></circle><circle cx="508.6" cy="338.2" r="2.6" fill="#10b981"><title>2026-08-29 · 2</title></circle><circle cx="545.3" cy="323.6" r="2.6" fill="#10b981"><title>2026-08-30 · 5</title></circle><circle cx="582.0" cy="274.8" r="2.6" fill="#10b981"><title>2026-08-31 · 15</title></circle><circle cx="618.7" cy="304.1" r="2.6" fill="#10b981"><title>2026-09-01 · 9</title></circle><circle cx="655.4" cy="323.6" r="2.6" fill="#10b981"><title>2026-09-02 · 5</title></circle><circle cx="692.1" cy="265.0" r="2.6" fill="#10b981"><title>2026-09-03 · 17</title></circle><circle cx="728.9" cy="338.2" r="2.6" fill="#10b981"><title>2026-09-04 · 2</title></circle><circle cx="765.6" cy="260.2" r="2.6" fill="#10b981"><title>2026-09-05 · 18</title></circle><circle cx="802.3" cy="333.4" r="2.6" fill="#10b981"><title>2026-09-06 · 3</title></circle><circle cx="839.0" cy="226.0" r="2.6" fill="#10b981"><title>2026-09-07 · 25</title></circle><circle cx="875.7" cy="240.6" r="2.6" fill="#10b981"><title>2026-09-08 · 22</title></circle><circle cx="912.4" cy="333.4" r="2.6" fill="#10b981"><title>2026-09-09 · 3</title></circle><circle cx="949.1" cy="323.6" r="2.6" fill="#10b981"><title>2026-09-10 · 5</title></circle><circle cx="985.9" cy="318.7" r="2.6" fill="#10b981"><title>2026-09-11 · 6</title></circle><circle cx="1022.6" cy="338.2" r="2.6" fill="#10b981"><title>2026-09-12 · 2</title></circle>
<g transform="translate(76,122)">
  <rect x="0" y="-10" width="10" height="10" fill="#2563eb" rx="2"/><text class="tick" x="15" y="0">views 独立</text>
  <rect x="96" y="-10" width="10" height="10" fill="#10b981" rx="2"/><text class="tick" x="111" y="0">clones 独立（虚线）</text>
</g>

<text class="lbl" x="68" y="394">npm 每日下载（上限 2500）</text>
<rect class="panel" x="68" y="404" width="1028" height="82" rx="6"/>
<line class="grid" x1="68" y1="486.0" x2="1096" y2="486.0"/><text class="tick" x="60" y="489.5" text-anchor="end">0</text><line class="grid" x1="68" y1="445.0" x2="1096" y2="445.0"/><text class="tick" x="60" y="448.5" text-anchor="end">1250</text><line class="grid" x1="68" y1="404.0" x2="1096" y2="404.0"/><text class="tick" x="60" y="407.5" text-anchor="end">2500</text>
<rect x="59.0" y="416.3" width="18.0" height="69.7" fill="#f59e0b" opacity=".85" rx="1.5"><title>2026-08-17 · npm 2125</title></rect><rect x="95.7" y="478.0" width="18.0" height="8.0" fill="#f59e0b" opacity=".85" rx="1.5"><title>2026-08-18 · npm 243</title></rect><rect x="132.4" y="474.7" width="18.0" height="11.3" fill="#f59e0b" opacity=".85" rx="1.5"><title>2026-08-19 · npm 346</title></rect><rect x="169.1" y="483.8" width="18.0" height="2.2" fill="#f59e0b" opacity=".85" rx="1.5"><title>2026-08-20 · npm 68</title></rect><rect x="205.9" y="475.7" width="18.0" height="10.3" fill="#f59e0b" opacity=".85" rx="1.5"><title>2026-08-21 · npm 313</title></rect><rect x="242.6" y="484.2" width="18.0" height="1.8" fill="#f59e0b" opacity=".85" rx="1.5"><title>2026-08-22 · npm 54</title></rect><rect x="279.3" y="484.5" width="18.0" height="1.5" fill="#f59e0b" opacity=".85" rx="1.5"><title>2026-08-23 · npm 15</title></rect><rect x="316.0" y="474.0" width="18.0" height="12.0" fill="#f59e0b" opacity=".85" rx="1.5"><title>2026-08-24 · npm 366</title></rect><rect x="352.7" y="475.2" width="18.0" height="10.8" fill="#f59e0b" opacity=".85" rx="1.5"><title>2026-08-25 · npm 328</title></rect><rect x="389.4" y="478.4" width="18.0" height="7.6" fill="#f59e0b" opacity=".85" rx="1.5"><title>2026-08-26 · npm 231</title></rect><rect x="426.1" y="479.8" width="18.0" height="6.2" fill="#f59e0b" opacity=".85" rx="1.5"><title>2026-08-27 · npm 190</title></rect><rect x="462.9" y="477.2" width="18.0" height="8.8" fill="#f59e0b" opacity=".85" rx="1.5"><title>2026-08-28 · npm 267</title></rect><rect x="499.6" y="483.3" width="18.0" height="2.7" fill="#f59e0b" opacity=".85" rx="1.5"><title>2026-08-29 · npm 81</title></rect><rect x="536.3" y="484.2" width="18.0" height="1.8" fill="#f59e0b" opacity=".85" rx="1.5"><title>2026-08-30 · npm 56</title></rect><rect x="573.0" y="478.9" width="18.0" height="7.1" fill="#f59e0b" opacity=".85" rx="1.5"><title>2026-08-31 · npm 217</title></rect><rect x="609.7" y="482.7" width="18.0" height="3.3" fill="#f59e0b" opacity=".85" rx="1.5"><title>2026-09-01 · npm 101</title></rect><rect x="646.4" y="483.2" width="18.0" height="2.8" fill="#f59e0b" opacity=".85" rx="1.5"><title>2026-09-02 · npm 86</title></rect><rect x="719.9" y="482.9" width="18.0" height="3.1" fill="#f59e0b" opacity=".85" rx="1.5"><title>2026-09-04 · npm 93</title></rect><rect x="756.6" y="478.0" width="18.0" height="8.0" fill="#f59e0b" opacity=".85" rx="1.5"><title>2026-09-05 · npm 244</title></rect><rect x="793.3" y="483.5" width="18.0" height="2.5" fill="#f59e0b" opacity=".85" rx="1.5"><title>2026-09-06 · npm 75</title></rect><rect x="903.4" y="484.0" width="18.0" height="2.0" fill="#f59e0b" opacity=".85" rx="1.5"><title>2026-09-09 · npm 62</title></rect><rect x="940.1" y="483.3" width="18.0" height="2.7" fill="#f59e0b" opacity=".85" rx="1.5"><title>2026-09-10 · npm 83</title></rect><rect x="976.9" y="483.0" width="18.0" height="3.0" fill="#f59e0b" opacity=".85" rx="1.5"><title>2026-09-11 · npm 90</title></rect><rect x="1013.6" y="484.0" width="18.0" height="2.0" fill="#f59e0b" opacity=".85" rx="1.5"><title>2026-09-12 · npm 61</title></rect>
<text class="tick" x="68.0" y="504" text-anchor="middle">08-17</text><text class="tick" x="141.4" y="504" text-anchor="middle">08-19</text><text class="tick" x="214.9" y="504" text-anchor="middle">08-21</text><text class="tick" x="288.3" y="504" text-anchor="middle">08-23</text><text class="tick" x="361.7" y="504" text-anchor="middle">08-25</text><text class="tick" x="435.1" y="504" text-anchor="middle">08-27</text><text class="tick" x="508.6" y="504" text-anchor="middle">08-29</text><text class="tick" x="582.0" y="504" text-anchor="middle">08-31</text><text class="tick" x="655.4" y="504" text-anchor="middle">09-02</text><text class="tick" x="728.9" y="504" text-anchor="middle">09-04</text><text class="tick" x="802.3" y="504" text-anchor="middle">09-06</text><text class="tick" x="875.7" y="504" text-anchor="middle">09-08</text><text class="tick" x="949.1" y="504" text-anchor="middle">09-10</text><text class="tick" x="1022.6" y="504" text-anchor="middle">09-12</text><text class="tick" x="1096.0" y="504" text-anchor="middle">09-14</text>
<text class="sub" x="68" y="542">注：npm 下载含镜像/CI/重复安装，且最近 1–2 天有结算延迟；GitHub traffic 仅有滚动 14 天窗口，历史由本归档保留。</text>
</svg>