<svg xmlns="http://www.w3.org/2000/svg" viewBox="0 0 1120 604" width="1120" height="604" role="img" aria-label="dsh-conversation-navigator 流量趋势">
<style>
  .bg{fill:#ffffff}.panel{fill:#f8fafc;stroke:#e2e8f0}
  .grid{stroke:#e5e7eb;stroke-width:1}.tick{fill:#64748b;font:11px ui-sans-serif,system-ui,sans-serif}
  .title{fill:#0f172a;font:600 17px ui-sans-serif,system-ui,sans-serif}
  .sub{fill:#475569;font:12px ui-sans-serif,system-ui,sans-serif}
  .lbl{fill:#334155;font:600 12px ui-sans-serif,system-ui,sans-serif}
  .rellabel{fill:#b45309;font:10px ui-sans-serif,system-ui,sans-serif}
  .rel{stroke:#f59e0b;stroke-width:1;stroke-dasharray:3 4;opacity:.65}
  .kpi{fill:#0f172a;font:600 16px ui-sans-serif,system-ui,sans-serif}
  .kpisub{fill:#64748b;font:10px ui-sans-serif,system-ui,sans-serif}
  .note{fill:#94a3b8;font:10px ui-sans-serif,system-ui,sans-serif}
  @media (prefers-color-scheme: dark){
    .bg{fill:#0b1220}.panel{fill:#111a2e;stroke:#1f2a44}.grid{stroke:#1f2a44}.tick{fill:#94a3b8}
    .title{fill:#e2e8f0}.sub{fill:#94a3b8}.lbl{fill:#cbd5e1}.kpi{fill:#e2e8f0}.kpisub{fill:#94a3b8}
    .rellabel{fill:#fbbf24}.note{fill:#64748b}
  }
</style>
<rect class="bg" width="1120" height="604"/>
<text class="title" x="68" y="32">dsh-conversation-navigator · 流量趋势</text>
<text class="sub" x="68" y="52">2026-08-17 → 2026-09-16　累计 31 天　数据源：npm downloads + GitHub traffic（8/17–8/29 GitHub 数据由会话日志快照恢复）</text>
<text class="sub" x="68" y="68">最近发版 0.2.8 @ 2026-09-07（9 天前）　生成于 2026-09-16 08:39Z</text>

<g class="kpi">
  <text x="68" y="94">5,934</text><text class="kpisub" x="68" y="109">npm 累计下载</text>
</g>
<g class="kpi" transform="translate(236,0)"><text x="0" y="94">497</text><text class="kpisub" x="0" y="109">GitHub 独立访客</text></g>
<g class="kpi" transform="translate(400,0)"><text x="0" y="94">300</text><text class="kpisub" x="0" y="109">独立克隆者</text></g>
<g class="kpi" transform="translate(556,0)"><text x="0" y="94">23</text><text class="kpisub" x="0" y="109">Stars</text></g>
<g class="kpi" transform="translate(690,0)"><text x="0" y="94">1,169 / 470</text><text class="kpisub" x="0" y="109">views / clones 次数</text></g>

<circle cx="68.0" cy="133" r="2.6" fill="#f59e0b"><title>2026-08-17 · 0.1.0, 0.1.1, 0.1.2, 0.1.3, 0.1.4, 0.1.5, 0.1.6, 0.1.7, 0.1.8, 0.1.9, 0.1.10, 0.1.11, 0.1.12, 0.1.13, 0.1.14, 0.1.15</title></circle><text class="rellabel" x="68.0" y="147" text-anchor="middle">0–15</text><circle cx="102.3" cy="133" r="2.6" fill="#f59e0b"><title>2026-08-18 · 0.1.16</title></circle><text class="rellabel" x="102.3" y="147" text-anchor="middle">0.1.16</text><circle cx="136.5" cy="133" r="2.6" fill="#f59e0b"><title>2026-08-19 · 0.1.17, 0.1.18</title></circle><text class="rellabel" x="136.5" y="147" text-anchor="middle">17–18</text><circle cx="205.1" cy="133" r="2.6" fill="#f59e0b"><title>2026-08-21 · 0.1.19, 0.1.20</title></circle><text class="rellabel" x="205.1" y="147" text-anchor="middle">19–20</text><circle cx="307.9" cy="133" r="2.6" fill="#f59e0b"><title>2026-08-24 · 0.1.21, 0.1.22</title></circle><text class="rellabel" x="307.9" y="147" text-anchor="middle">21–22</text><circle cx="342.1" cy="133" r="2.6" fill="#f59e0b"><title>2026-08-25 · 0.1.23, 0.1.24</title></circle><text class="rellabel" x="342.1" y="147" text-anchor="middle">23–24</text><circle cx="376.4" cy="133" r="2.6" fill="#f59e0b"><title>2026-08-26 · 0.1.25</title></circle><text class="rellabel" x="376.4" y="147" text-anchor="middle">0.1.25</text><circle cx="410.7" cy="133" r="2.6" fill="#f59e0b"><title>2026-08-27 · 0.2.0</title></circle><text class="rellabel" x="410.7" y="147" text-anchor="middle">0.2.0</text><circle cx="444.9" cy="133" r="2.6" fill="#f59e0b"><title>2026-08-28 · 0.2.1</title></circle><text class="rellabel" x="444.9" y="147" text-anchor="middle">0.2.1</text><circle cx="547.7" cy="133" r="2.6" fill="#f59e0b"><title>2026-08-31 · 0.2.2</title></circle><text class="rellabel" x="547.7" y="147" text-anchor="middle">0.2.2</text><circle cx="650.5" cy="133" r="2.6" fill="#f59e0b"><title>2026-09-03 · 0.2.3, 0.2.4, 0.2.5</title></circle><text class="rellabel" x="650.5" y="147" text-anchor="middle">3–5</text><circle cx="719.1" cy="133" r="2.6" fill="#f59e0b"><title>2026-09-05 · 0.2.6</title></circle><text class="rellabel" x="719.1" y="147" text-anchor="middle">0.2.6</text><circle cx="787.6" cy="133" r="2.6" fill="#f59e0b"><title>2026-09-07 · 0.2.7, 0.2.8</title></circle><text class="rellabel" x="787.6" y="147" text-anchor="middle">7–8</text>
<rect class="panel" x="68" y="156" width="1028" height="256" rx="6"/>
<line class="grid" x1="68" y1="412.0" x2="1096" y2="412.0"/><text class="tick" x="60" y="415.5" text-anchor="end">0</text><line class="grid" x1="68" y1="348.0" x2="1096" y2="348.0"/><text class="tick" x="60" y="351.5" text-anchor="end">13</text><line class="grid" x1="68" y1="284.0" x2="1096" y2="284.0"/><text class="tick" x="60" y="287.5" text-anchor="end">25</text><line class="grid" x1="68" y1="220.0" x2="1096" y2="220.0"/><text class="tick" x="60" y="223.5" text-anchor="end">38</text><line class="grid" x1="68" y1="156.0" x2="1096" y2="156.0"/><text class="tick" x="60" y="159.5" text-anchor="end">50</text>
<path d="M68.0,386.4 L102.3,386.4 L136.5,406.9 L170.8,406.9 L205.1,365.9 L239.3,401.8 L273.6,386.4 L307.9,365.9 L342.1,386.4 L376.4,248.2 L410.7,217.4 L444.9,186.7 L479.2,263.5 L513.5,355.7 L547.7,273.8 L582.0,273.8 L616.3,284.0 L650.5,268.6 L684.8,268.6 L719.1,294.2 L753.3,340.3 L787.6,299.4 L821.9,335.2 L856.1,355.7 L890.4,340.3 L924.7,319.8 L958.9,360.8 L993.2,381.3 L1027.5,330.1 L1061.7,325.0 L1061.7,412 L68.0,412 Z" fill="#2563eb" opacity=".10"/>
<path d="M68.0,386.4 L102.3,386.4 L136.5,406.9 L170.8,406.9 L205.1,365.9 L239.3,401.8 L273.6,386.4 L307.9,365.9 L342.1,386.4 L376.4,248.2 L410.7,217.4 L444.9,186.7 L479.2,263.5 L513.5,355.7 L547.7,273.8 L582.0,273.8 L616.3,284.0 L650.5,268.6 L684.8,268.6 L719.1,294.2 L753.3,340.3 L787.6,299.4 L821.9,335.2 L856.1,355.7 L890.4,340.3 L924.7,319.8 L958.9,360.8 L993.2,381.3 L1027.5,330.1 L1061.7,325.0" fill="none" stroke="#2563eb" stroke-width="2.2" stroke-linejoin="round"/>
<path d="M68.0,243.0 L102.3,391.5 L136.5,360.8 L170.8,360.8 L205.1,376.2 L239.3,391.5 L273.6,381.3 L307.9,381.3 L342.1,340.3 L376.4,340.3 L410.7,325.0 L444.9,350.6 L479.2,401.8 L513.5,386.4 L547.7,335.2 L582.0,365.9 L616.3,386.4 L650.5,325.0 L684.8,401.8 L719.1,319.8 L753.3,396.6 L787.6,284.0 L821.9,299.4 L856.1,396.6 L890.4,386.4 L924.7,381.3 L958.9,401.8 L993.2,401.8 L1027.5,325.0 L1061.7,386.4" fill="none" stroke="#10b981" stroke-width="2.2" stroke-linejoin="round" stroke-dasharray="6 3"/>
<circle cx="68.0" cy="386.4" r="2.6" fill="#2563eb"><title>2026-08-17 · 5</title></circle><circle cx="102.3" cy="386.4" r="2.6" fill="#2563eb"><title>2026-08-18 · 5</title></circle><circle cx="136.5" cy="406.9" r="2.6" fill="#2563eb"><title>2026-08-19 · 1</title></circle><circle cx="170.8" cy="406.9" r="2.6" fill="#2563eb"><title>2026-08-20 · 1</title></circle><circle cx="205.1" cy="365.9" r="2.6" fill="#2563eb"><title>2026-08-21 · 9</title></circle><circle cx="239.3" cy="401.8" r="2.6" fill="#2563eb"><title>2026-08-22 · 2</title></circle><circle cx="273.6" cy="386.4" r="2.6" fill="#2563eb"><title>2026-08-23 · 5</title></circle><circle cx="307.9" cy="365.9" r="2.6" fill="#2563eb"><title>2026-08-24 · 9</title></circle><circle cx="342.1" cy="386.4" r="2.6" fill="#2563eb"><title>2026-08-25 · 5</title></circle><circle cx="376.4" cy="248.2" r="2.6" fill="#2563eb"><title>2026-08-26 · 32</title></circle><circle cx="410.7" cy="217.4" r="2.6" fill="#2563eb"><title>2026-08-27 · 38</title></circle><circle cx="444.9" cy="186.7" r="2.6" fill="#2563eb"><title>2026-08-28 · 44</title></circle><circle cx="479.2" cy="263.5" r="2.6" fill="#2563eb"><title>2026-08-29 · 29</title></circle><circle cx="513.5" cy="355.7" r="2.6" fill="#2563eb"><title>2026-08-30 · 11</title></circle><circle cx="547.7" cy="273.8" r="2.6" fill="#2563eb"><title>2026-08-31 · 27</title></circle><circle cx="582.0" cy="273.8" r="2.6" fill="#2563eb"><title>2026-09-01 · 27</title></circle><circle cx="616.3" cy="284.0" r="2.6" fill="#2563eb"><title>2026-09-02 · 25</title></circle><circle cx="650.5" cy="268.6" r="2.6" fill="#2563eb"><title>2026-09-03 · 28</title></circle><circle cx="684.8" cy="268.6" r="2.6" fill="#2563eb"><title>2026-09-04 · 28</title></circle><circle cx="719.1" cy="294.2" r="2.6" fill="#2563eb"><title>2026-09-05 · 23</title></circle><circle cx="753.3" cy="340.3" r="2.6" fill="#2563eb"><title>2026-09-06 · 14</title></circle><circle cx="787.6" cy="299.4" r="2.6" fill="#2563eb"><title>2026-09-07 · 22</title></circle><circle cx="821.9" cy="335.2" r="2.6" fill="#2563eb"><title>2026-09-08 · 15</title></circle><circle cx="856.1" cy="355.7" r="2.6" fill="#2563eb"><title>2026-09-09 · 11</title></circle><circle cx="890.4" cy="340.3" r="2.6" fill="#2563eb"><title>2026-09-10 · 14</title></circle><circle cx="924.7" cy="319.8" r="2.6" fill="#2563eb"><title>2026-09-11 · 18</title></circle><circle cx="958.9" cy="360.8" r="2.6" fill="#2563eb"><title>2026-09-12 · 10</title></circle><circle cx="993.2" cy="381.3" r="2.6" fill="#2563eb"><title>2026-09-13 · 6</title></circle><circle cx="1027.5" cy="330.1" r="2.6" fill="#2563eb"><title>2026-09-14 · 16</title></circle><circle cx="1061.7" cy="325.0" r="2.6" fill="#2563eb"><title>2026-09-15 · 17</title></circle>
<circle cx="68.0" cy="243.0" r="2.6" fill="#10b981"><title>2026-08-17 · 33</title></circle><circle cx="102.3" cy="391.5" r="2.6" fill="#10b981"><title>2026-08-18 · 4</title></circle><circle cx="136.5" cy="360.8" r="2.6" fill="#10b981"><title>2026-08-19 · 10</title></circle><circle cx="170.8" cy="360.8" r="2.6" fill="#10b981"><title>2026-08-20 · 10</title></circle><circle cx="205.1" cy="376.2" r="2.6" fill="#10b981"><title>2026-08-21 · 7</title></circle><circle cx="239.3" cy="391.5" r="2.6" fill="#10b981"><title>2026-08-22 · 4</title></circle><circle cx="273.6" cy="381.3" r="2.6" fill="#10b981"><title>2026-08-23 · 6</title></circle><circle cx="307.9" cy="381.3" r="2.6" fill="#10b981"><title>2026-08-24 · 6</title></circle><circle cx="342.1" cy="340.3" r="2.6" fill="#10b981"><title>2026-08-25 · 14</title></circle><circle cx="376.4" cy="340.3" r="2.6" fill="#10b981"><title>2026-08-26 · 14</title></circle><circle cx="410.7" cy="325.0" r="2.6" fill="#10b981"><title>2026-08-27 · 17</title></circle><circle cx="444.9" cy="350.6" r="2.6" fill="#10b981"><title>2026-08-28 · 12</title></circle><circle cx="479.2" cy="401.8" r="2.6" fill="#10b981"><title>2026-08-29 · 2</title></circle><circle cx="513.5" cy="386.4" r="2.6" fill="#10b981"><title>2026-08-30 · 5</title></circle><circle cx="547.7" cy="335.2" r="2.6" fill="#10b981"><title>2026-08-31 · 15</title></circle><circle cx="582.0" cy="365.9" r="2.6" fill="#10b981"><title>2026-09-01 · 9</title></circle><circle cx="616.3" cy="386.4" r="2.6" fill="#10b981"><title>2026-09-02 · 5</title></circle><circle cx="650.5" cy="325.0" r="2.6" fill="#10b981"><title>2026-09-03 · 17</title></circle><circle cx="684.8" cy="401.8" r="2.6" fill="#10b981"><title>2026-09-04 · 2</title></circle><circle cx="719.1" cy="319.8" r="2.6" fill="#10b981"><title>2026-09-05 · 18</title></circle><circle cx="753.3" cy="396.6" r="2.6" fill="#10b981"><title>2026-09-06 · 3</title></circle><circle cx="787.6" cy="284.0" r="2.6" fill="#10b981"><title>2026-09-07 · 25</title></circle><circle cx="821.9" cy="299.4" r="2.6" fill="#10b981"><title>2026-09-08 · 22</title></circle><circle cx="856.1" cy="396.6" r="2.6" fill="#10b981"><title>2026-09-09 · 3</title></circle><circle cx="890.4" cy="386.4" r="2.6" fill="#10b981"><title>2026-09-10 · 5</title></circle><circle cx="924.7" cy="381.3" r="2.6" fill="#10b981"><title>2026-09-11 · 6</title></circle><circle cx="958.9" cy="401.8" r="2.6" fill="#10b981"><title>2026-09-12 · 2</title></circle><circle cx="993.2" cy="401.8" r="2.6" fill="#10b981"><title>2026-09-13 · 2</title></circle><circle cx="1027.5" cy="325.0" r="2.6" fill="#10b981"><title>2026-09-14 · 17</title></circle><circle cx="1061.7" cy="386.4" r="2.6" fill="#10b981"><title>2026-09-15 · 5</title></circle>
<g transform="translate(78,174)">
  <rect x="0" y="-9" width="10" height="10" fill="#2563eb" rx="2"/><text class="tick" x="15" y="0">views 独立（上限 50）</text>
  <rect x="196" y="-9" width="10" height="10" fill="#10b981" rx="2"/><text class="tick" x="211" y="0">clones 独立（虚线）</text>
</g>

<text class="lbl" x="68" y="440">npm 每日下载（上限 2500）</text>
<rect class="panel" x="68" y="450" width="1028" height="86" rx="6"/>
<line class="grid" x1="68" y1="536.0" x2="1096" y2="536.0"/><text class="tick" x="60" y="539.5" text-anchor="end">0</text><line class="grid" x1="68" y1="493.0" x2="1096" y2="493.0"/><text class="tick" x="60" y="496.5" text-anchor="end">1250</text><line class="grid" x1="68" y1="450.0" x2="1096" y2="450.0"/><text class="tick" x="60" y="453.5" text-anchor="end">2500</text>
<rect x="59.0" y="462.9" width="18.0" height="73.1" fill="#f59e0b" opacity=".85" rx="1.5"><title>2026-08-17 · npm 2125</title></rect><rect x="93.3" y="527.6" width="18.0" height="8.4" fill="#f59e0b" opacity=".85" rx="1.5"><title>2026-08-18 · npm 243</title></rect><rect x="127.5" y="524.1" width="18.0" height="11.9" fill="#f59e0b" opacity=".85" rx="1.5"><title>2026-08-19 · npm 346</title></rect><rect x="161.8" y="533.7" width="18.0" height="2.3" fill="#f59e0b" opacity=".85" rx="1.5"><title>2026-08-20 · npm 68</title></rect><rect x="196.1" y="525.2" width="18.0" height="10.8" fill="#f59e0b" opacity=".85" rx="1.5"><title>2026-08-21 · npm 313</title></rect><rect x="230.3" y="534.1" width="18.0" height="1.9" fill="#f59e0b" opacity=".85" rx="1.5"><title>2026-08-22 · npm 54</title></rect><rect x="264.6" y="534.5" width="18.0" height="1.5" fill="#f59e0b" opacity=".85" rx="1.5"><title>2026-08-23 · npm 15</title></rect><rect x="298.9" y="523.4" width="18.0" height="12.6" fill="#f59e0b" opacity=".85" rx="1.5"><title>2026-08-24 · npm 366</title></rect><rect x="333.1" y="524.7" width="18.0" height="11.3" fill="#f59e0b" opacity=".85" rx="1.5"><title>2026-08-25 · npm 328</title></rect><rect x="367.4" y="528.1" width="18.0" height="7.9" fill="#f59e0b" opacity=".85" rx="1.5"><title>2026-08-26 · npm 231</title></rect><rect x="401.7" y="529.5" width="18.0" height="6.5" fill="#f59e0b" opacity=".85" rx="1.5"><title>2026-08-27 · npm 190</title></rect><rect x="435.9" y="526.8" width="18.0" height="9.2" fill="#f59e0b" opacity=".85" rx="1.5"><title>2026-08-28 · npm 267</title></rect><rect x="470.2" y="533.2" width="18.0" height="2.8" fill="#f59e0b" opacity=".85" rx="1.5"><title>2026-08-29 · npm 81</title></rect><rect x="504.5" y="534.1" width="18.0" height="1.9" fill="#f59e0b" opacity=".85" rx="1.5"><title>2026-08-30 · npm 56</title></rect><rect x="538.7" y="528.5" width="18.0" height="7.5" fill="#f59e0b" opacity=".85" rx="1.5"><title>2026-08-31 · npm 217</title></rect><rect x="573.0" y="532.5" width="18.0" height="3.5" fill="#f59e0b" opacity=".85" rx="1.5"><title>2026-09-01 · npm 101</title></rect><rect x="607.3" y="533.0" width="18.0" height="3.0" fill="#f59e0b" opacity=".85" rx="1.5"><title>2026-09-02 · npm 86</title></rect><rect x="675.8" y="532.8" width="18.0" height="3.2" fill="#f59e0b" opacity=".85" rx="1.5"><title>2026-09-04 · npm 93</title></rect><rect x="710.1" y="527.6" width="18.0" height="8.4" fill="#f59e0b" opacity=".85" rx="1.5"><title>2026-09-05 · npm 244</title></rect><rect x="744.3" y="533.4" width="18.0" height="2.6" fill="#f59e0b" opacity=".85" rx="1.5"><title>2026-09-06 · npm 75</title></rect><rect x="847.1" y="533.9" width="18.0" height="2.1" fill="#f59e0b" opacity=".85" rx="1.5"><title>2026-09-09 · npm 62</title></rect><rect x="881.4" y="533.1" width="18.0" height="2.9" fill="#f59e0b" opacity=".85" rx="1.5"><title>2026-09-10 · npm 83</title></rect><rect x="915.7" y="532.9" width="18.0" height="3.1" fill="#f59e0b" opacity=".85" rx="1.5"><title>2026-09-11 · npm 90</title></rect><rect x="949.9" y="533.9" width="18.0" height="2.1" fill="#f59e0b" opacity=".85" rx="1.5"><title>2026-09-12 · npm 61</title></rect><rect x="984.2" y="533.5" width="18.0" height="2.5" fill="#f59e0b" opacity=".85" rx="1.5"><title>2026-09-13 · npm 72</title></rect><rect x="1018.5" y="533.7" width="18.0" height="2.3" fill="#f59e0b" opacity=".85" rx="1.5"><title>2026-09-14 · npm 67</title></rect>
<line class="rel" x1="68.0" y1="155" x2="68.0" y2="536"/><line class="rel" x1="102.3" y1="155" x2="102.3" y2="536"/><line class="rel" x1="136.5" y1="155" x2="136.5" y2="536"/><line class="rel" x1="205.1" y1="155" x2="205.1" y2="536"/><line class="rel" x1="307.9" y1="155" x2="307.9" y2="536"/><line class="rel" x1="342.1" y1="155" x2="342.1" y2="536"/><line class="rel" x1="376.4" y1="155" x2="376.4" y2="536"/><line class="rel" x1="410.7" y1="155" x2="410.7" y2="536"/><line class="rel" x1="444.9" y1="155" x2="444.9" y2="536"/><line class="rel" x1="547.7" y1="155" x2="547.7" y2="536"/><line class="rel" x1="650.5" y1="155" x2="650.5" y2="536"/><line class="rel" x1="719.1" y1="155" x2="719.1" y2="536"/><line class="rel" x1="787.6" y1="155" x2="787.6" y2="536"/>
<text class="tick" x="68.0" y="554" text-anchor="middle">08-17</text><text class="tick" x="136.5" y="554" text-anchor="middle">08-19</text><text class="tick" x="205.1" y="554" text-anchor="middle">08-21</text><text class="tick" x="273.6" y="554" text-anchor="middle">08-23</text><text class="tick" x="342.1" y="554" text-anchor="middle">08-25</text><text class="tick" x="410.7" y="554" text-anchor="middle">08-27</text><text class="tick" x="479.2" y="554" text-anchor="middle">08-29</text><text class="tick" x="547.7" y="554" text-anchor="middle">08-31</text><text class="tick" x="616.3" y="554" text-anchor="middle">09-02</text><text class="tick" x="684.8" y="554" text-anchor="middle">09-04</text><text class="tick" x="753.3" y="554" text-anchor="middle">09-06</text><text class="tick" x="821.9" y="554" text-anchor="middle">09-08</text><text class="tick" x="890.4" y="554" text-anchor="middle">09-10</text><text class="tick" x="958.9" y="554" text-anchor="middle">09-12</text><text class="tick" x="1027.5" y="554" text-anchor="middle">09-14</text><text class="tick" x="1096.0" y="554" text-anchor="middle">09-16</text>
<text class="note" x="68" y="572">注：npm 下载含镜像/CI/重复安装，且最近 1–2 天有结算延迟；GitHub traffic 仅保留滚动 14 天窗口，历史由本归档留存。</text>
<text class="note" x="68" y="588">橙色圆点与竖虚线为发版日，其下数字为该日版本号（同日多次发版显示为 起始–结束 补丁号）。</text>
</svg>